<svg width="111" height="51" viewBox="0 0 111 51" fill="none" xmlns="http://www.w3.org/2000/svg">
<path d="M47.9865 8.66337C49.7624 8.66337 51.3032 9.86358 51.7996 11.5349L49.3978 12.266C49.2671 11.6133 48.6916 11.1693 47.9865 11.1693H45.5571C44.7478 11.1697 44.0948 11.7967 44.0948 12.6061C44.0948 13.4418 44.8015 14.0156 45.6634 14.0939L48.3266 14.434C50.4943 14.7475 52.01 16.3675 52.01 18.483C52.0099 19.5536 51.618 20.4946 50.8346 21.278C50.0772 22.0615 49.136 22.4533 48.0652 22.4533H45.166C43.3642 22.4533 41.8494 21.2514 41.353 19.5542L43.7547 18.8231C43.9377 19.4756 44.4611 19.9453 45.166 19.9453H48.0652C48.8224 19.9453 49.5017 19.2924 49.502 18.483C49.502 17.6214 48.8752 17.0474 47.9355 16.9165L45.3488 16.5765C44.278 16.472 43.3893 16.0543 42.658 15.2969C41.9528 14.5395 41.5889 13.6247 41.5889 12.6061C41.5889 11.5092 41.9793 10.5685 42.7366 9.81112C43.52 9.05388 44.4605 8.66355 45.5571 8.66337H47.9865Z" fill="#A5A5A5"/>
<path d="M59.6022 8.89717H65.5577V11.4052H59.6022V17.6201C59.6022 18.8998 60.6477 19.9453 61.9274 19.9453C63.0503 19.9453 63.9643 19.1619 64.1995 18.1174L66.6034 18.8741C66.3162 19.8923 65.741 20.7542 64.8797 21.4331C64.0178 22.1122 63.0505 22.4533 61.9274 22.4533C60.5954 22.4533 59.4718 21.9823 58.5054 21.042C57.5654 20.0758 57.0962 18.9519 57.0962 17.6201V11.4052H53.4915V8.89717H57.0962V5.29239H59.6022V8.89717Z" fill="#A5A5A5"/>
<path fill-rule="evenodd" clip-rule="evenodd" d="M72.6822 8.66337C73.8046 8.66359 74.7964 9.02792 75.6579 9.73247V8.89717H78.1659V22.2174H75.6579V21.3821C74.7964 22.0867 73.8046 22.4531 72.6822 22.4533H72.3677C71.0357 22.4533 69.8865 21.9822 68.9202 21.042C67.98 20.0757 67.511 18.9265 67.511 17.5945V13.52C67.511 12.1881 67.98 11.0383 68.9202 10.0981C69.8864 9.13194 71.0359 8.6634 72.3677 8.66337H72.6822ZM72.3677 11.1693C71.0358 11.1694 70.017 12.2404 70.0169 13.52V17.5945C70.0169 18.8743 71.088 19.9452 72.3677 19.9453H73.3071C74.5869 19.9453 75.6579 18.8743 75.6579 17.5945V13.52C75.6578 12.2403 74.6391 11.1693 73.3071 11.1693H72.3677Z" fill="#A5A5A5"/>
<path d="M87.4563 8.66337C89.2321 8.66337 90.773 9.86365 91.2694 11.5349L88.8676 12.266C88.7368 11.6133 88.1613 11.1693 87.4563 11.1693H85.029C84.2194 11.1693 83.5646 11.7964 83.5646 12.6061C83.5646 13.4418 84.2713 14.0156 85.1332 14.0939L87.7964 14.434C89.9642 14.7474 91.4798 16.3675 91.4798 18.483C91.4797 19.5536 91.0879 20.4945 90.3044 21.278C89.5471 22.0614 88.6057 22.4533 87.535 22.4533H84.6358C82.8342 22.4531 81.3191 21.2513 80.8228 19.5542L83.2266 18.8231C83.4097 19.4753 83.9314 19.945 84.6358 19.9453H87.535C88.2922 19.9453 88.9715 19.2924 88.9718 18.483C88.9718 17.6213 88.3453 17.0473 87.4053 16.9165L84.8186 16.5765C83.7484 16.4719 82.8609 16.0537 82.1299 15.2969C81.4247 14.5395 81.0587 13.6247 81.0587 12.6061C81.0587 11.5092 81.4511 10.5685 82.2086 9.81112C82.9919 9.05416 83.9324 8.66337 85.029 8.66337H87.4563Z" fill="#A5A5A5"/>
<path d="M96.5405 9.73247C97.402 9.02793 98.3939 8.66359 99.5162 8.66337H99.8307C101.163 8.6634 102.313 9.13176 103.253 10.0981C104.219 11.0382 104.689 12.1881 104.69 13.52V22.2174H102.181V13.52C102.181 12.2404 101.163 11.1694 99.8307 11.1693H98.8913C97.6116 11.1693 96.5406 12.2404 96.5405 13.52V22.2174H94.0325V4.35294H96.5405V9.73247Z" fill="#A5A5A5"/>
<path d="M47.2044 30.4281C48.327 30.4283 49.346 30.7667 50.2076 31.4717C51.0693 32.1507 51.6426 33.0132 51.9037 34.0839L49.502 34.7895C49.267 33.719 48.327 32.9345 47.2044 32.934H46.2118C44.8798 32.934 43.8611 34.005 43.861 35.2847V39.3593C43.861 40.639 44.932 41.71 46.2118 41.71H47.2044C48.327 41.7095 49.267 40.8995 49.502 39.829L51.9037 40.5601C51.6427 41.6306 51.0691 42.4928 50.2076 43.1978C49.346 43.8767 48.327 44.2178 47.2044 44.2181H46.2118C44.8798 44.2181 43.7561 43.7469 42.7898 42.8067C41.8234 41.8404 41.353 40.6913 41.353 39.3593V35.2847C41.353 33.9528 41.8241 32.803 42.7643 31.8628C43.7305 30.897 44.8802 30.4281 46.2118 30.4281H47.2044Z" fill="white"/>
<path fill-rule="evenodd" clip-rule="evenodd" d="M60.0719 30.4281C61.4038 30.4281 62.5537 30.8966 63.4939 31.8628C64.4602 32.803 64.9307 33.9528 64.9307 35.2847V39.3593C64.9307 40.6912 64.4602 41.8404 63.4939 42.8067C62.5536 43.747 61.4039 44.2181 60.0719 44.2181H59.1324C57.8005 44.2181 56.6513 43.7469 55.6849 42.8067C54.7447 41.8404 54.2736 40.6913 54.2736 39.3593V35.2847C54.2737 33.9528 54.7447 32.803 55.6849 31.8628C56.6512 30.8968 57.8007 30.4281 59.1324 30.4281H60.0719ZM59.1324 32.934C57.8527 32.934 56.7818 34.005 56.7817 35.2847V39.3593C56.7817 40.639 57.8527 41.71 59.1324 41.71H60.0719C61.3517 41.71 62.4226 40.639 62.4226 39.3593V35.2847C62.4226 34.005 61.3516 32.934 60.0719 32.934H59.1324Z" fill="white"/>
<path fill-rule="evenodd" clip-rule="evenodd" d="M77.93 43.9821H75.4241V43.1468C74.5623 43.8519 73.5692 44.218 72.4463 44.2181H72.1317C70.8 44.2179 69.6504 43.7468 68.6843 42.8067C67.7442 41.8405 67.2751 40.6911 67.2751 39.3593V35.2847C67.2751 33.9528 67.7441 32.8029 68.6843 31.8628C69.6504 30.8966 70.8001 30.4282 72.1317 30.4281H72.4463C73.5692 30.4282 74.5623 30.7921 75.4241 31.4972V26.1176H77.93V43.9821ZM72.1317 32.934C70.8523 32.9344 69.7811 34.0053 69.781 35.2847V39.3593C69.781 40.6388 70.8523 41.7096 72.1317 41.71H73.0733C74.3528 41.7096 75.4241 40.6388 75.4241 39.3593V35.2847C75.424 34.0053 74.3527 32.9344 73.0733 32.934H72.1317Z" fill="white"/>
<path fill-rule="evenodd" clip-rule="evenodd" d="M86.4637 30.4281C87.7955 30.4281 88.9456 30.8968 89.8857 31.8628C90.852 32.803 91.3225 33.9528 91.3225 35.2847V38.1839H83.1735V39.3593C83.1735 40.639 84.1923 41.7099 85.5243 41.71H86.5424C87.6653 41.71 88.5547 40.9267 88.8421 39.8821L91.2439 40.5878C90.6951 42.6767 88.762 44.2181 86.5424 44.2181H85.5243C84.1923 44.218 83.0686 43.7469 82.1023 42.8067C81.1362 41.8405 80.6676 40.6911 80.6676 39.3593V35.2847C80.6676 33.9528 81.1366 32.803 82.0768 31.8628C83.043 30.8966 84.1925 30.4281 85.5243 30.4281H86.4637ZM85.5243 32.934C84.1924 32.9341 83.1736 34.0051 83.1735 35.2847V35.9118H88.8145V35.2847C88.8144 34.005 87.7957 32.934 86.4637 32.934H85.5243Z" fill="white"/>
<path d="M95.8794 38.595H102.294V44.6176H95.8794V38.595Z" fill="#D61F1F"/>
<path d="M31.5588 10.8824V17.4118H24.2834L13.0588 29.5715V33.7353H31.5588V40.2647H6.52942V27.0188L7.39448 26.0794L21.4225 10.8824H31.5588Z" fill="#D61F1F"/>
</svg>
